<?xml version="1.0" encoding="UTF-8" standalone="no"?>
<!-- Created with Inkscape (http://www.inkscape.org/) -->

<svg
   xmlns:dc="http://purl.org/dc/elements/1.1/"
   xmlns:cc="http://creativecommons.org/ns#"
   xmlns:rdf="http://www.w3.org/1999/02/22-rdf-syntax-ns#"
   xmlns:svg="http://www.w3.org/2000/svg"
   xmlns="http://www.w3.org/2000/svg"
   version="1.1"
   width="100%"
   height="100%"
   viewBox="0 0 80 18.525"
   id="Vrstva_1"
   xml:space="preserve"><metadata
     id="metadata3193"><rdf:RDF><cc:Work
         rdf:about=""><dc:format>image/svg+xml</dc:format><dc:type
           rdf:resource="http://purl.org/dc/dcmitype/StillImage" /><dc:title></dc:title></cc:Work></rdf:RDF></metadata><defs
     id="defs3191" /><style
     type="text/css"
     id="style3169" /><path
     d="M 8.7749988,0 C 3.8726123,0 -1.4349317e-6,3.2556945 -1.4349317e-6,8.3750005 c 0,5.2060745 3.8542305349317,8.3750005 8.8000002349317,8.3750005 2.2993492,0 4.5234822,-0.741867 5.8250002,-2 l -2.875,-3.525 c -0.650759,0.737527 -1.7837849,1.175 -2.8250002,1.175 -2.2559651,0 -3.6750001,-1.805803 -3.6750001,-3.9750005 0,-2.212581 1.430803,-4.0750004 3.6000001,-4.0750004 1.0412152,0 2.1610092,0.5124729 2.7250002,1.2500004 l 3,-3.4750005 C 13.360249,0.8668655 10.98758,0 8.7749988,0 z M 74.150001,0 C 69.247614,0 65.375,3.2556945 65.375,8.3750005 c 0,5.2060745 3.85423,8.3750005 8.800001,8.3750005 2.299349,0 4.523481,-0.748482 5.825,-2.05 l -2.875,-3.5 c -0.694143,0.780911 -1.808786,1.175 -2.85,1.175 -2.255966,0 -3.7,-1.830803 -3.7,-4.0000005 0,-2.169197 1.437418,-4.0250004 3.65,-4.0250004 1.041214,0 2.186009,0.5124729 2.75,1.2500004 L 79.950001,2.125 C 78.73525,0.8668655 76.362582,0 74.150001,0 z M 49.15,0.075 c -2.169198,0 -3.980857,1.2367136 -4.675,2.625 l -0.05,0 0,-2.175 -5.025,0 0,8.9750005 c 1.171367,1.2147505 1.85,2.8594905 1.85,4.7250005 0,0.694143 -0.08308,1.392625 -0.3,2 l 3.6,0 0,-8.5000005 c 0,-1.778742 0.952873,-3.3750004 2.775,-3.3750004 1.86551,0 2.35,1.5396424 2.35,3.2750004 l 0,8.6000005 5.2,0 0,-9.7250005 C 54.875,3.3329719 53.358243,0.075 49.15,0.075 z m -32.875001,0.45 0,3.9750001 7.1,0 -7.375,7.7000009 0,4.025 11.775,0 c -0.21692,-0.607375 -0.325,-1.255857 -0.325,-1.95 0,-0.737527 0.151464,-1.424241 0.325,-2.075 l -5.725,0 7.575,-7.8250009 0,-3.8500001 -13.35,0 z m 41.500001,0 0,15.7 5.175,0 0,-15.7 -5.175,0 z M 34.4,9.9250005 c -2.386118,0 -4.325001,1.9638825 -4.325001,4.3500005 0,2.429501 1.982267,4.249999 4.325001,4.249999 2.299348,0 4.25,-1.913882 4.25,-4.299999 0,-2.386118 -1.950652,-4.3000005 -4.25,-4.3000005 z"
     id="path3177"
     style="fill:#a0a09f" /></svg>