<?xml version="1.0" encoding="UTF-8" standalone="no"?>
<!-- Created with Inkscape (http://www.inkscape.org/) -->

<svg
   xmlns:dc="http://purl.org/dc/elements/1.1/"
   xmlns:cc="http://creativecommons.org/ns#"
   xmlns:rdf="http://www.w3.org/1999/02/22-rdf-syntax-ns#"
   xmlns:svg="http://www.w3.org/2000/svg"
   xmlns="http://www.w3.org/2000/svg"
   version="1.1"
   width="100%"
   height="100%"
   viewBox="0 0 120 39.575663"
   id="Vrstva_1"
   xml:space="preserve"><metadata
     id="metadata43"><rdf:RDF><cc:Work
         rdf:about=""><dc:format>image/svg+xml</dc:format><dc:type
           rdf:resource="http://purl.org/dc/dcmitype/StillImage" /><dc:title></dc:title></cc:Work></rdf:RDF></metadata><defs
     id="defs41" /><style
     type="text/css"
     id="style3" /><g
     transform="matrix(0.37441498,0,0,0.37441498,-97.834655,-91.881436)"
     id="g7"><path
       d="m 423.7,296.5 c 0,3 -0.5,5.7 -1.5,8.2 -1,2.5 -2.5,4.6 -4.3,6.3 -1.8,1.8 -4,3.1 -6.5,4.1 -2.5,1 -5.3,1.4 -8.2,1.4 -3,0 -5.7,-0.5 -8.2,-1.4 -2.5,-1 -4.7,-2.3 -6.5,-4.1 -1.8,-1.8 -3.3,-3.9 -4.3,-6.3 -1,-2.5 -1.5,-5.2 -1.5,-8.2 0,-3 0.5,-5.8 1.5,-8.2 1,-2.4 2.5,-4.5 4.3,-6.2 1.8,-1.7 4,-3 6.5,-3.9 2.5,-0.9 5.2,-1.4 8.2,-1.4 2.9,0 5.7,0.5 8.2,1.4 2.5,0.9 4.7,2.2 6.5,3.9 1.8,1.7 3.3,3.8 4.3,6.2 1,2.4 1.5,5.2 1.5,8.2 z m -9.8,0 c 0,-1.6 -0.3,-3.2 -0.8,-4.6 -0.5,-1.4 -1.3,-2.6 -2.2,-3.7 -0.9,-1 -2.1,-1.8 -3.4,-2.4 -1.3,-0.6 -2.8,-0.9 -4.4,-0.9 -1.6,0 -3.1,0.3 -4.4,0.9 -1.3,0.6 -2.5,1.4 -3.4,2.4 -1,1 -1.7,2.2 -2.2,3.7 -0.5,1.4 -0.8,3 -0.8,4.6 0,1.7 0.3,3.3 0.8,4.7 0.5,1.4 1.3,2.7 2.2,3.7 0.9,1 2.1,1.8 3.4,2.4 1.3,0.6 2.8,0.9 4.4,0.9 1.6,0 3.1,-0.3 4.4,-0.9 1.3,-0.6 2.5,-1.4 3.4,-2.4 1,-1 1.7,-2.3 2.2,-3.7 0.5,-1.4 0.8,-3 0.8,-4.7 z"
       id="path9"
       style="fill:#a0a09f" /><path
       d="m 465.3,315.5 0.2,-26.7 h -0.2 l -9.8,26.7 h -6.4 l -9.5,-26.7 h -0.2 l 0.2,26.7 H 431 v -37.8 h 13 l 8.6,24.2 h 0.2 l 8.2,-24.2 h 13.2 v 37.8 h -8.9 z"
       id="path11"
       style="fill:#a0a09f" /><path
       d="m 507.6,315.5 -15.2,-24.7 h -0.2 l 0.2,24.7 h -8.9 V 277.7 H 494 l 15.1,24.6 h 0.2 l -0.2,-24.6 h 8.9 v 37.8 h -10.4 z"
       id="path13"
       style="fill:#a0a09f" /><path
       d="m 527.3,315.5 v -37.8 h 9.2 v 37.8 h -9.2 z"
       id="path15"
       style="fill:#a0a09f" /><path
       d="m 571.6,315.5 -2.9,-7.4 h -14.6 l -2.8,7.4 h -9.9 l 15.8,-37.8 h 8.9 l 15.7,37.8 h -10.2 z m -10.1,-27.6 -4.8,13 h 9.5 l -4.7,-13 z"
       id="path17"
       style="fill:#a0a09f" /></g><g
     transform="matrix(0.37441498,0,0,0.37441498,-97.834655,-91.881436)"
     id="g19"><path
       d="m 394.7,249.4 v 14.4 h -4.4 v -14.4 h -5.1 v -3.7 h 14.7 v 3.7 h -5.2 z"
       id="path21"
       style="fill:#a0a09f" /><path
       d="m 417.8,260 c -0.4,0.9 -0.9,1.7 -1.6,2.3 -0.7,0.6 -1.5,1.1 -2.5,1.5 -1,0.4 -2,0.5 -3.2,0.5 -1.2,0 -2.3,-0.2 -3.2,-0.5 -1,-0.4 -1.8,-0.9 -2.4,-1.5 -0.7,-0.6 -1.2,-1.4 -1.5,-2.3 -0.4,-0.9 -0.5,-1.9 -0.5,-3 v -11.3 h 4.4 v 11 c 0,0.5 0.1,1 0.2,1.4 0.1,0.4 0.3,0.8 0.6,1.2 0.3,0.4 0.6,0.6 1.1,0.8 0.4,0.2 1,0.3 1.6,0.3 0.6,0 1.1,-0.1 1.6,-0.3 0.4,-0.2 0.8,-0.5 1.1,-0.8 0.3,-0.3 0.5,-0.7 0.6,-1.2 0.1,-0.4 0.2,-0.9 0.2,-1.4 v -11 h 4.4 V 257 c -0.3,1.1 -0.5,2.1 -0.9,3 z"
       id="path23"
       style="fill:#a0a09f" /><path
       d="m 432.9,263.8 -3.9,-7.2 h -1.5 v 7.2 h -4.3 v -18.2 h 6.9 c 0.9,0 1.7,0.1 2.6,0.3 0.8,0.2 1.6,0.5 2.2,0.9 0.7,0.4 1.2,1 1.6,1.7 0.4,0.7 0.6,1.6 0.6,2.6 0,1.2 -0.3,2.3 -1,3.1 -0.7,0.8 -1.6,1.4 -2.8,1.8 l 4.8,7.8 h -5.2 z m -0.2,-12.6 c 0,-0.4 -0.1,-0.8 -0.3,-1 -0.2,-0.3 -0.4,-0.5 -0.7,-0.6 -0.3,-0.1 -0.6,-0.2 -1,-0.3 -0.4,-0.1 -0.7,-0.1 -1,-0.1 h -2.3 v 4.2 h 2.1 c 0.4,0 0.7,0 1.1,-0.1 0.4,-0.1 0.7,-0.2 1,-0.3 0.3,-0.2 0.6,-0.4 0.8,-0.7 0.2,-0.2 0.3,-0.6 0.3,-1.1 z"
       id="path25"
       style="fill:#a0a09f" /><path
       d="m 451,263.8 -3.9,-7.2 h -1.5 v 7.2 h -4.3 v -18.2 h 6.9 c 0.9,0 1.7,0.1 2.6,0.3 0.8,0.2 1.6,0.5 2.2,0.9 0.7,0.4 1.2,1 1.6,1.7 0.4,0.7 0.6,1.6 0.6,2.6 0,1.2 -0.3,2.3 -1,3.1 -0.7,0.8 -1.6,1.4 -2.8,1.8 l 4.8,7.8 H 451 z m -0.2,-12.6 c 0,-0.4 -0.1,-0.8 -0.3,-1 -0.2,-0.3 -0.4,-0.5 -0.7,-0.6 -0.3,-0.1 -0.6,-0.2 -1,-0.3 -0.4,-0.1 -0.7,-0.1 -1,-0.1 h -2.3 v 4.2 h 2.1 c 0.4,0 0.7,0 1.1,-0.1 0.4,-0.1 0.7,-0.2 1,-0.3 0.3,-0.2 0.6,-0.4 0.8,-0.7 0.2,-0.2 0.3,-0.6 0.3,-1.1 z"
       id="path27"
       style="fill:#a0a09f" /><path
       d="m 459.4,263.8 v -18.2 h 4.4 v 18.2 h -4.4 z"
       id="path29"
       style="fill:#a0a09f" /><path
       d="m 478.3,250.4 c -0.4,-0.5 -0.9,-0.9 -1.5,-1.1 -0.6,-0.3 -1.2,-0.4 -1.8,-0.4 -0.3,0 -0.6,0 -0.9,0.1 -0.3,0.1 -0.6,0.2 -0.8,0.3 -0.2,0.1 -0.4,0.3 -0.6,0.6 -0.2,0.2 -0.2,0.5 -0.2,0.9 0,0.3 0.1,0.6 0.2,0.8 0.1,0.2 0.3,0.4 0.6,0.5 0.2,0.2 0.5,0.3 0.9,0.4 0.3,0.1 0.7,0.3 1.2,0.4 0.6,0.2 1.3,0.4 1.9,0.7 0.7,0.2 1.3,0.6 1.8,1 0.5,0.4 1,0.9 1.4,1.5 0.4,0.6 0.5,1.4 0.5,2.3 0,1 -0.2,1.9 -0.6,2.7 -0.4,0.8 -0.9,1.4 -1.6,1.9 -0.7,0.5 -1.4,0.9 -2.2,1.1 -0.8,0.2 -1.7,0.4 -2.6,0.4 -1.3,0 -2.6,-0.2 -3.8,-0.7 -1.2,-0.5 -2.2,-1.1 -3,-1.9 l 2.9,-2.9 c 0.4,0.5 1,1 1.8,1.4 0.7,0.4 1.5,0.6 2.2,0.6 0.3,0 0.6,0 1,-0.1 0.3,-0.1 0.6,-0.2 0.8,-0.3 0.2,-0.2 0.4,-0.4 0.6,-0.6 0.1,-0.3 0.2,-0.6 0.2,-0.9 0,-0.3 -0.1,-0.6 -0.3,-0.9 -0.2,-0.2 -0.4,-0.5 -0.7,-0.7 -0.3,-0.2 -0.7,-0.4 -1.2,-0.5 -0.5,-0.2 -1,-0.3 -1.6,-0.5 -0.6,-0.2 -1.2,-0.4 -1.7,-0.7 -0.6,-0.3 -1.1,-0.6 -1.5,-1 -0.4,-0.4 -0.8,-0.9 -1.1,-1.5 -0.3,-0.6 -0.4,-1.3 -0.4,-2.1 0,-1 0.2,-1.9 0.6,-2.6 0.4,-0.7 0.9,-1.3 1.6,-1.8 0.7,-0.5 1.4,-0.8 2.3,-1 0.9,-0.2 1.7,-0.3 2.5,-0.3 1,0 2.1,0.2 3.1,0.6 1.1,0.4 2,0.9 2.8,1.7 l -2.8,2.6 z"
       id="path31"
       style="fill:#a0a09f" /></g><polygon
     points="272.4,322.3 305.8,322.3 322.4,351.1 344.6,351.1 316.9,303.1 316.8,303.1 316.8,303.1 261.3,303.1 "
     transform="matrix(0.37441498,0,0,0.37441498,-97.834655,-91.881436)"
     id="polygon33"
     style="fill:#a0a09f" /><polygon
     points="353,346.3 364,327.1 347.4,298.2 364,269.4 352.9,250.2 325.2,298.2 "
     transform="matrix(0.37441498,0,0,0.37441498,-97.834655,-91.881436)"
     id="polygon35"
     style="fill:#a0a09f" /><polygon
     points="261.4,293.5 283.6,293.5 300.2,264.6 333.5,264.6 344.6,245.4 289.1,245.4 "
     transform="matrix(0.37441498,0,0,0.37441498,-97.834655,-91.881436)"
     id="polygon37"
     style="fill:#a0a09f" /></svg>